<?xml version="1.0" encoding="UTF-8"?>
<svg width="512px" height="512px" viewBox="0 0 512 512" version="1.1" xmlns="http://www.w3.org/2000/svg">
    <title>Basketball Icon</title>
    <g id="Basketball" stroke="none" stroke-width="1" fill="none" fill-rule="evenodd">
        <circle id="Ball" fill="#E86C30" cx="256" cy="256" r="256"></circle>
        <path d="M460.2,160.4 C454.7,148.2 448.1,136.5 440.7,125.6 C393.3,128.7 327.3,170.9 274.9,248.8 C320.9,254.2 378.4,242.3 427.1,216.1 C439.2,197.5 451.7,179.6 460.2,160.4 Z" id="Curve1" fill="#000000" fill-rule="nonzero" opacity="0.1"></path>
        <path d="M440.7,125.6 C421,90.8 392.8,62.2 358.4,42 C341.3,83.5 297.1,146.4 238.2,198.1 C244.6,224.4 258.4,243.1 274.9,248.8 C327.3,170.9 393.3,128.7 440.7,125.6 Z" id="Curve2" fill="#000000" fill-rule="nonzero" opacity="0.1"></path>
        <path d="M358.4,42 C323.4,21.5 281.4,10 237.4,10 C206.8,10 177.6,16.5 151.1,28.1 C168.7,75.9 179.1,145.9 182.9,213.5 C186.1,208.5 189.4,203.4 192.8,198.1 C238.9,134.7 313.1,72.3 358.4,42 Z" id="Curve3" fill="#000000" fill-rule="nonzero" opacity="0.1"></path>
        <path d="M151.1,28.1 C98.1,51.4 56.5,94.7 35.2,148.9 C78.7,164.6 148.6,170.3 215.2,164.7 C211.8,143 207.2,121.9 201.5,103.3 C187.1,72.5 169.1,45.8 151.1,28.1 Z" id="Curve4" fill="#000000" fill-rule="nonzero" opacity="0.1"></path>
        <path d="M35.2,148.9 C29.2,165.3 25.2,182.7 23.4,200.8 C23.4,200.8 23.4,200.9 23.4,200.9 C66.2,229 126.9,250.6 192.8,255.7 C200.6,222.4 205.8,185.9 215.2,164.7 C148.6,170.3 78.7,164.6 35.2,148.9 Z" id="Curve5" fill="#000000" fill-rule="nonzero" opacity="0.1"></path>
        <path d="M23.4,200.9 C18.1,249.8 30.1,299 56.6,339.7 C99.9,313.9 150.5,274.4 192.8,255.7 C126.9,250.6 66.2,229 23.4,200.9 Z" id="Curve6" fill="#000000" fill-rule="nonzero" opacity="0.1"></path>
        <path d="M56.6,339.7 C87.9,388 138.1,423.1 197.1,436.1 C213.2,388.7 219.9,322.6 202.3,271.3 C198.6,266.2 195.7,261 192.8,255.7 C150.5,274.4 99.9,313.9 56.6,339.7 Z" id="Curve7" fill="#000000" fill-rule="nonzero" opacity="0.1"></path>
        <path d="M197.1,436.1 C214.8,441.1 233.4,443.7 252.6,443.7 C271.8,443.7 290.3,441.1 308,436.1 C308,393.1 306.9,351.9 298.7,310.7 C268.7,303.4 236.7,296.5 202.3,271.3 C219.9,322.6 213.2,388.7 197.1,436.1 Z" id="Curve8" fill="#000000" fill-rule="nonzero" opacity="0.1"></path>
        <path d="M308,436.1 C366.7,423.2 416.8,388.3 448.1,340.2 C404.8,314.2 363.1,290.8 324.1,282.4 C314.9,291.9 306.8,301.3 298.7,310.7 C306.9,351.9 308,393.1 308,436.1 Z" id="Curve9" fill="#000000" fill-rule="nonzero" opacity="0.1"></path>
        <path d="M448.1,340.2 C474.5,299.6 486.5,250.5 481.4,201.8 C452.8,230.8 414.4,252.1 372.4,265.3 C356.2,271 340.1,277.1 324.1,282.4 C363.1,290.8 404.8,314.2 448.1,340.2 Z" id="Curve10" fill="#000000" fill-rule="nonzero" opacity="0.1"></path>
        <path d="M481.4,201.8 C480.1,193.3 478.2,185 475.9,176.9 C472.2,164.6 467.5,152.9 462.1,141.6 C460.8,147.9 458.4,154.1 454.9,160.3 C453.2,165.7 451.4,171 449.5,176.2 C425.2,181.7 399.9,199.6 373.8,223.3 C374.5,234.9 375.2,246.6 372.4,265.3 C414.4,252.1 452.8,230.8 481.4,201.8 Z" id="Curve11" fill="#000000" fill-rule="nonzero" opacity="0.1"></path>
    </g>
</svg>